grf
version=1
nRows=13
nColumns=46
inDegrees=yes
endheader
time	ground_force_1_vx	ground_force_1_vy	ground_force_1_vz	ground_force_1_px	ground_force_1_py	ground_force_1_pz	ground_moment_1_mx	ground_moment_1_my	ground_moment_1_mz	ground_force_2_vx	ground_force_2_vy	ground_force_2_vz	ground_force_2_px	ground_force_2_py	ground_force_2_pz	ground_moment_2_mx	ground_moment_2_my	ground_moment_2_mz	ground_force_3_vx	ground_force_3_vy	ground_force_3_vz	ground_force_3_px	ground_force_3_py	ground_force_3_pz	ground_moment_3_mx	ground_moment_3_my	ground_moment_3_mz	ground_force_4_vx	ground_force_4_vy	ground_force_4_vz	ground_force_4_px	ground_force_4_py	ground_force_4_pz	ground_moment_4_mx	ground_moment_4_my	ground_moment_4_mz	ground_force_5_vx	ground_force_5_vy	ground_force_5_vz	ground_force_5_px	ground_force_5_py	ground_force_5_pz	ground_moment_5_mx	ground_moment_5_my	ground_moment_5_mz
0.000000	0.000000	0.000000	0.000000	0.000000	0.000000	0.000000	0.000000	0.000000	0.000000	0.000000	0.000000	0.000000	0.000000	0.000000	0.000000	0.000000	0.000000	0.000000	0.000000	0.000000	0.000000	0.000000	0.000000	0.000000	0.000000	0.000000	0.000000	-0.147590	421.949322	-45.943831	0.212952	0.000000	-1.064113	-0.000000	3.974860	0.000000	-3.860985	468.929519	46.757466	0.221299	0.000000	-1.402271	-0.000000	-3.359010	-0.000000
0.000500	0.000000	0.000000	0.000000	0.000000	0.000000	0.000000	0.000000	0.000000	0.000000	0.000000	0.000000	0.000000	0.000000	0.000000	0.000000	0.000000	0.000000	0.000000	0.000000	0.000000	0.000000	0.000000	0.000000	0.000000	0.000000	0.000000	0.000000	-0.136515	421.925189	-45.897263	0.212979	0.000000	-1.064173	-0.000000	3.971016	0.000000	-3.875339	468.912187	46.742759	0.221287	0.000000	-1.402275	-0.000000	-3.354708	-0.000000
0.001000	0.000000	0.000000	0.000000	0.000000	0.000000	0.000000	0.000000	0.000000	0.000000	0.000000	0.000000	0.000000	0.000000	0.000000	0.000000	0.000000	0.000000	0.000000	0.000000	0.000000	0.000000	0.000000	0.000000	0.000000	0.000000	0.000000	0.000000	-0.125429	421.902526	-45.850041	0.213005	0.000000	-1.064233	-0.000000	3.967161	0.000000	-3.889880	468.895166	46.727463	0.221275	0.000000	-1.402279	-0.000000	-3.350358	-0.000000
0.001500	0.000000	0.000000	0.000000	0.000000	0.000000	0.000000	0.000000	0.000000	0.000000	0.000000	0.000000	0.000000	0.000000	0.000000	0.000000	0.000000	0.000000	0.000000	0.000000	0.000000	0.000000	0.000000	0.000000	0.000000	0.000000	0.000000	0.000000	-0.114380	421.881522	-45.802271	0.213030	0.000000	-1.064294	-0.000000	3.963296	0.000000	-3.904603	468.878535	46.711588	0.221263	0.000000	-1.402282	-0.000000	-3.345959	-0.000000
0.002000	0.000000	0.000000	0.000000	0.000000	0.000000	0.000000	0.000000	0.000000	0.000000	0.000000	0.000000	0.000000	0.000000	0.000000	0.000000	0.000000	0.000000	0.000000	0.000000	0.000000	0.000000	0.000000	0.000000	0.000000	0.000000	0.000000	0.000000	-0.103405	421.862344	-45.754054	0.213055	0.000000	-1.064354	-0.000000	3.959426	0.000000	-3.919502	468.862355	46.695136	0.221252	0.000000	-1.402284	-0.000000	-3.341509	-0.000000
0.002500	0.000000	0.000000	0.000000	0.000000	0.000000	0.000000	0.000000	0.000000	0.000000	0.000000	0.000000	0.000000	0.000000	0.000000	0.000000	0.000000	0.000000	0.000000	0.000000	0.000000	0.000000	0.000000	0.000000	0.000000	0.000000	0.000000	0.000000	-0.092533	421.845137	-45.705488	0.213078	0.000000	-1.064414	-0.000000	3.955558	0.000000	-3.934573	468.846669	46.678105	0.221241	0.000000	-1.402286	-0.000000	-3.337009	-0.000000
0.003000	0.000000	0.000000	0.000000	0.000000	0.000000	0.000000	0.000000	0.000000	0.000000	0.000000	0.000000	0.000000	0.000000	0.000000	0.000000	0.000000	0.000000	0.000000	0.000000	0.000000	0.000000	0.000000	0.000000	0.000000	0.000000	0.000000	0.000000	-0.081791	421.830036	-45.656669	0.213100	0.000000	-1.064474	-0.000000	3.951699	0.000000	-3.949816	468.831508	46.660488	0.221230	0.000000	-1.402287	-0.000000	-3.332455	-0.000000
0.003500	0.000000	0.000000	0.000000	0.000000	0.000000	0.000000	0.000000	0.000000	0.000000	0.000000	0.000000	0.000000	0.000000	0.000000	0.000000	0.000000	0.000000	0.000000	0.000000	0.000000	0.000000	0.000000	0.000000	0.000000	0.000000	0.000000	0.000000	-0.071206	421.817163	-45.607683	0.213120	0.000000	-1.064533	-0.000000	3.947857	0.000000	-3.965238	468.816890	46.642277	0.221219	0.000000	-1.402287	-0.000000	-3.327843	-0.000000
0.004000	0.000000	0.000000	0.000000	0.000000	0.000000	0.000000	0.000000	0.000000	0.000000	0.000000	0.000000	0.000000	0.000000	0.000000	0.000000	0.000000	0.000000	0.000000	0.000000	0.000000	0.000000	0.000000	0.000000	0.000000	0.000000	0.000000	0.000000	-0.060801	421.806627	-45.558618	0.213139	0.000000	-1.064591	-0.000000	3.944040	0.000000	-3.980853	468.802818	46.623461	0.221209	0.000000	-1.402286	-0.000000	-3.323166	-0.000000
0.004500	0.000000	0.000000	0.000000	0.000000	0.000000	0.000000	0.000000	0.000000	0.000000	0.000000	0.000000	0.000000	0.000000	0.000000	0.000000	0.000000	0.000000	0.000000	0.000000	0.000000	0.000000	0.000000	0.000000	0.000000	0.000000	0.000000	0.000000	-0.050602	421.798525	-45.509555	0.213156	0.000000	-1.064649	-0.000000	3.940251	0.000000	-3.996677	468.789278	46.604028	0.221199	0.000000	-1.402284	-0.000000	-3.318419	-0.000000
0.005000	0.000000	0.000000	0.000000	0.000000	0.000000	0.000000	0.000000	0.000000	0.000000	0.000000	0.000000	0.000000	0.000000	0.000000	0.000000	0.000000	0.000000	0.000000	0.000000	0.000000	0.000000	0.000000	0.000000	0.000000	0.000000	0.000000	0.000000	-0.040631	421.792944	-45.460577	0.213172	0.000000	-1.064706	-0.000000	3.936496	0.000000	-4.012720	468.776239	46.583962	0.221190	0.000000	-1.402282	-0.000000	-3.313594	-0.000000
0.005500	0.000000	0.000000	0.000000	0.000000	0.000000	0.000000	0.000000	0.000000	0.000000	0.000000	0.000000	0.000000	0.000000	0.000000	0.000000	0.000000	0.000000	0.000000	0.000000	0.000000	0.000000	0.000000	0.000000	0.000000	0.000000	0.000000	0.000000	-0.030905	421.789966	-45.411769	0.213186	0.000000	-1.064762	-0.000000	3.932776	0.000000	-4.028988	468.763662	46.563251	0.221181	0.000000	-1.402279	-0.000000	-3.308690	-0.000000
0.006000	0.000000	0.000000	0.000000	0.000000	0.000000	0.000000	0.000000	0.000000	0.000000	0.000000	0.000000	0.000000	0.000000	0.000000	0.000000	0.000000	0.000000	0.000000	0.000000	0.000000	0.000000	0.000000	0.000000	0.000000	0.000000	0.000000	0.000000	-0.021442	421.789675	-45.363218	0.213199	0.000000	-1.064817	-0.000000	3.929094	0.000000	-4.045482	468.751498	46.541882	0.221172	0.000000	-1.402275	-0.000000	-3.303705	-0.000000
